<svg width="32" height="32" viewBox="0 0 32 32" fill="none" xmlns="http://www.w3.org/2000/svg">
<path d="M20.7168 19.6672C20.992 19.936 21.2608 20.2048 21.536 20.4608C21.5629 20.4789 21.5934 20.4911 21.6254 20.4966C21.6573 20.5021 21.6901 20.5008 21.7216 20.4928C22.0121 20.4282 22.3145 20.4408 22.5986 20.5296C22.8828 20.6183 23.1386 20.7799 23.3408 20.9984L29.568 27.2256C29.723 27.3777 29.8466 27.5589 29.9317 27.7588C30.0167 27.9587 30.0616 28.1733 30.0636 28.3906C30.0657 28.6078 30.025 28.8233 29.9438 29.0247C29.8626 29.2262 29.7425 29.4097 29.5904 29.5648C29.4383 29.7199 29.2571 29.8434 29.0572 29.9285C28.8573 30.0135 28.6426 30.0584 28.4254 30.0605C28.2082 30.0625 27.9927 30.0218 27.7912 29.9406C27.5898 29.8594 27.4062 29.7393 27.2512 29.5872C25.1392 27.488 23.0336 25.3824 20.9344 23.2704C20.7314 23.0816 20.5823 22.8422 20.5025 22.5768C20.4226 22.3113 20.4149 22.0294 20.48 21.76C20.4949 21.71 20.495 21.6568 20.4802 21.6068C20.4655 21.5568 20.4365 21.5122 20.3968 21.4784C20.1472 21.2288 19.904 20.9664 19.6544 20.7104C18.4671 21.7476 17.0632 22.5064 15.5452 22.9316C14.0271 23.3568 12.4332 23.4376 10.88 23.168C8.277 22.7802 5.92327 21.4051 4.30718 19.328C3.04671 17.7422 2.26407 15.8301 2.0509 13.8156C1.83773 11.8011 2.20285 9.76753 3.10351 7.95302C4.00416 6.1385 5.40309 4.6181 7.13651 3.56981C8.86993 2.52152 10.8661 1.98873 12.8914 2.03381C14.9166 2.07888 16.8871 2.69996 18.5722 3.82433C20.2572 4.94871 21.5871 6.52984 22.4062 8.38263C23.2252 10.2354 23.4995 12.2832 23.1969 14.2862C22.8943 16.2892 22.0274 18.1646 20.6976 19.6928L20.7168 19.6672ZM21.4336 12.672C21.4361 10.9355 20.9233 9.23729 19.9602 7.79239C18.997 6.34749 17.6268 5.22087 16.0229 4.55517C14.4191 3.88947 12.6538 3.71463 10.9505 4.05278C9.24727 4.39094 7.68265 5.22688 6.45476 6.45477C5.22686 7.68266 4.39092 9.24729 4.05277 10.9505C3.71461 12.6538 3.88945 14.4191 4.55515 16.0229C5.22085 17.6268 6.34747 18.997 7.79238 19.9602C9.23728 20.9234 10.9355 21.4361 12.672 21.4336C14.9957 21.4336 17.2243 20.5105 18.8674 18.8674C20.5105 17.2243 21.4336 14.9957 21.4336 12.672Z" fill="#5A5A5A"/>
<path d="M14.4513 14.4256C14.3048 14.4249 14.16 14.3945 14.0256 14.3362C13.8913 14.2779 13.7701 14.1929 13.6696 14.0864C13.5691 13.9799 13.4912 13.854 13.4408 13.7165C13.3903 13.579 13.3683 13.4327 13.3761 13.2864C13.3872 13.2356 13.3798 13.1825 13.3551 13.1367C13.3305 13.0909 13.2903 13.0555 13.2417 13.0368C12.7425 12.768 12.2433 12.4928 11.7441 12.2112C11.7089 12.1852 11.6663 12.1712 11.6225 12.1712C11.5788 12.1712 11.5361 12.1852 11.5009 12.2112C11.2921 12.3656 11.0352 12.4408 10.7761 12.4232C10.517 12.4056 10.2725 12.2964 10.0865 12.1152C10.0526 12.0911 10.0139 12.0746 9.97303 12.0668C9.93215 12.0591 9.89008 12.0603 9.84972 12.0704C9.40172 12.2304 8.96012 12.4032 8.50572 12.5632C8.4527 12.5761 8.40557 12.6065 8.37191 12.6495C8.33824 12.6924 8.32 12.7454 8.32012 12.8C8.29297 13.0687 8.16627 13.3175 7.96493 13.4976C7.76359 13.6776 7.50219 13.7758 7.23212 13.7728C6.97 13.7576 6.72207 13.6487 6.53356 13.466C6.34505 13.2832 6.22852 13.0388 6.20524 12.7773C6.18196 12.5157 6.25348 12.2546 6.40674 12.0414C6.56 11.8282 6.7848 11.6772 7.04012 11.616C7.2082 11.5738 7.38435 11.5758 7.55144 11.6217C7.71853 11.6677 7.87089 11.7561 7.99372 11.8784C8.03544 11.9251 8.09216 11.9558 8.15409 11.9651C8.21602 11.9745 8.27927 11.9619 8.33292 11.9296C8.75532 11.7632 9.18412 11.6096 9.61292 11.4496C9.66319 11.4393 9.70842 11.4121 9.74104 11.3725C9.77366 11.3329 9.79169 11.2833 9.79212 11.232C9.81656 10.9536 9.94717 10.6954 10.1569 10.5107C10.3666 10.326 10.6393 10.2291 10.9185 10.24C11.0598 10.2466 11.1983 10.2809 11.3263 10.3411C11.4542 10.4013 11.5691 10.4862 11.6642 10.5908C11.7593 10.6954 11.8328 10.8178 11.8806 10.9509C11.9284 11.084 11.9494 11.2252 11.9425 11.3664C11.9326 11.4246 11.9432 11.4844 11.9723 11.5357C12.0015 11.587 12.0475 11.6267 12.1025 11.648C12.6017 11.9104 13.0881 12.192 13.5873 12.4544C13.6244 12.4716 13.6648 12.4805 13.7057 12.4805C13.7466 12.4805 13.787 12.4716 13.8241 12.4544C13.9725 12.354 14.1418 12.2885 14.3192 12.263C14.4966 12.2375 14.6774 12.2526 14.8481 12.3072C14.8889 12.3168 14.9313 12.3172 14.9723 12.3084C15.0133 12.2995 15.0517 12.2816 15.0849 12.256C15.7249 11.616 16.3649 10.976 17.0049 10.368C17.1073 10.272 17.0625 10.1888 17.0369 10.0864C16.9552 9.81307 16.9821 9.51873 17.1121 9.26476C17.242 9.01079 17.465 8.81678 17.7345 8.7232C18.0021 8.63132 18.2949 8.64665 18.5515 8.76597C18.808 8.8853 19.0084 9.09934 19.1105 9.3632C19.1909 9.5558 19.2114 9.76819 19.1691 9.97259C19.1269 10.177 19.0239 10.3639 18.8737 10.5088C18.7345 10.6633 18.5522 10.7727 18.3504 10.8229C18.1485 10.873 17.9363 10.8617 17.7409 10.7904C17.6916 10.7675 17.6361 10.7614 17.583 10.773C17.5298 10.7845 17.4819 10.8131 17.4465 10.8544L15.5265 12.7232C15.4901 12.7552 15.4657 12.7987 15.4576 12.8465C15.4494 12.8942 15.4579 12.9434 15.4817 12.9856C15.5363 13.1495 15.5512 13.3239 15.5255 13.4947C15.4997 13.6654 15.4338 13.8276 15.3333 13.9681C15.2329 14.1085 15.1005 14.2232 14.9472 14.3027C14.794 14.3822 14.624 14.4243 14.4513 14.4256Z" fill="#5A5A5A"/>
<path d="M11.9296 20.8C11.6864 20.8 11.456 20.7488 11.232 20.6976C10.784 20.5952 10.3488 20.4672 9.90719 20.3584C9.85893 20.3505 9.81573 20.3239 9.78696 20.2844C9.7582 20.2448 9.74621 20.1955 9.75359 20.1472C9.75359 18.7691 9.75359 17.3931 9.75359 16.0192C9.75359 15.3792 9.75359 14.7392 9.75359 14.0992C9.75497 13.8345 9.85221 13.5794 10.0273 13.3809C10.2024 13.1824 10.4435 13.0541 10.7059 13.0198C10.9683 12.9854 11.2343 13.0473 11.4546 13.194C11.6748 13.3407 11.8345 13.5622 11.904 13.8176C11.9267 13.9077 11.9396 13.9999 11.9424 14.0928V20.6528C11.9425 20.7021 11.9382 20.7514 11.9296 20.8Z" fill="#5A5A5A"/>
<path d="M16.9856 19.5584V12.6208C16.9856 12.3288 17.1016 12.0489 17.308 11.8424C17.5145 11.636 17.7944 11.52 18.0864 11.52C18.3783 11.52 18.6583 11.636 18.8648 11.8424C19.0712 12.0489 19.1872 12.3288 19.1872 12.6208V17.472C19.1878 17.5403 19.1677 17.6073 19.1296 17.664C18.5593 18.4234 17.8569 19.0738 17.056 19.584C17.056 19.584 17.0304 19.552 16.9856 19.5584Z" fill="#5A5A5A"/>
<path d="M13.3823 20.7936C13.3823 20.7168 13.3823 20.6784 13.3823 20.6336C13.3823 19.328 13.3823 18.0181 13.3823 16.704C13.3823 16.4928 13.3823 16.2816 13.3823 16.064C13.4003 15.7833 13.525 15.5202 13.7309 15.3285C13.9368 15.1369 14.2083 15.0314 14.4895 15.0336C14.7704 15.0351 15.0399 15.1452 15.2415 15.3408C15.4431 15.5364 15.5612 15.8025 15.5711 16.0832C15.5711 17.4464 15.5711 18.8032 15.5711 20.1664C15.5687 20.198 15.5595 20.2287 15.544 20.2563C15.5285 20.2839 15.5072 20.3079 15.4815 20.3264C14.8075 20.5809 14.1007 20.7382 13.3823 20.7936Z" fill="#5A5A5A"/>
<path d="M8.26239 19.6032C7.80159 19.2192 7.31519 18.8544 6.88639 18.432C6.13119 17.7024 6.14399 17.6896 6.14399 16.64C6.14399 16.2688 6.14399 15.8976 6.14399 15.5264C6.13883 15.3803 6.16316 15.2347 6.21552 15.0982C6.26788 14.9618 6.34721 14.8373 6.44875 14.7321C6.5503 14.627 6.672 14.5434 6.80656 14.4863C6.94113 14.4293 7.08582 14.3999 7.23199 14.4C7.37876 14.4016 7.52372 14.4326 7.65835 14.491C7.79298 14.5495 7.91455 14.6343 8.01593 14.7404C8.1173 14.8466 8.19642 14.9719 8.24864 15.1091C8.30086 15.2463 8.32512 15.3925 8.31999 15.5392V19.3792C8.31999 19.4368 8.31999 19.4944 8.31999 19.5456L8.26239 19.6032Z" fill="#5A5A5A"/>
</svg>
